<?xml version="1.0" encoding="UTF-8"?>
<svg version="1.1" xmlns="http://www.w3.org/2000/svg" width="512" height="512">
<path d="M0 0 C0.70947784 0.00126892 1.41895569 0.00253784 2.14993286 0.00384521 C45.96352474 0.15304929 87.09245216 13.14205127 118.38793945 44.64990234 C124.66030932 51.21893236 129.72221775 58.44519146 134.4375 66.1875 C134.83807617 66.84024902 135.23865234 67.49299805 135.65136719 68.16552734 C146.60767192 86.39743262 152.49504301 107.22906196 155.4375 128.1875 C155.540625 128.91042236 155.64375 129.63334473 155.75 130.37817383 C156.68966226 138.13617764 156.58877292 145.92870298 156.56787109 153.73071289 C156.56245714 156.14410526 156.56787223 158.55731601 156.57421875 160.97070312 C156.57355884 162.51041708 156.5722795 164.05013091 156.5703125 165.58984375 C156.57233673 166.30857162 156.57436096 167.0272995 156.57644653 167.76780701 C156.56190499 170.85045179 156.42028052 173.23915844 155.4375 176.1875 C156.47875534 176.18305878 157.52001068 176.17861755 158.59281921 176.17404175 C168.40691659 176.13349376 178.22099696 176.10351466 188.03515911 176.08387566 C193.08068522 176.07343964 198.12614368 176.05928368 203.17163086 176.03662109 C208.04103574 176.01488635 212.91037556 176.00293 217.77982521 175.99774551 C219.63735796 175.9940509 221.49488715 175.98683629 223.3523922 175.97603989 C225.95465152 175.96151664 228.5566422 175.95952241 231.15893555 175.96044922 C231.9264212 175.95325867 232.69390686 175.94606812 233.48464966 175.93865967 C237.55919533 175.95435654 240.84309086 176.18646834 244.4375 178.1875 C246.51074138 181.29736207 246.71142186 182.07858387 246.6875 185.625 C246.69265625 186.38683594 246.6978125 187.14867187 246.703125 187.93359375 C246.40416019 190.47039809 245.80737133 192.03680201 244.4375 194.1875 C240.57387408 196.76325061 237.40408821 196.45374186 232.92700195 196.41455078 C232.05849609 196.41484283 231.18999023 196.41513489 230.29516602 196.41543579 C227.42193644 196.41404147 224.54896558 196.39847544 221.67578125 196.3828125 C219.68466839 196.37908273 217.6935537 196.37623559 215.70243835 196.37423706 C210.45973653 196.36659775 205.21714538 196.34694666 199.9744873 196.3248291 C194.62558489 196.30437712 189.27666461 196.29523673 183.92773438 196.28515625 C173.43094094 196.26370108 162.93422967 196.2295615 152.4375 196.1875 C152.24167076 197.50080292 152.24167076 197.50080292 152.04188538 198.84063721 C151.77957375 200.57709503 151.77957375 200.57709503 151.51196289 202.34863281 C151.34016006 203.49229309 151.16835724 204.63595337 150.99134827 205.81427002 C143.60040495 250.82903865 121.04941723 292.76513689 91.421875 326.90625 C90.96143799 327.44137207 90.50100098 327.97649414 90.02661133 328.52783203 C88.4375 330.1875 88.4375 330.1875 86.32299805 331.87451172 C82.85926034 334.76332811 80.73736973 336.82026476 79.75146484 341.31542969 C79.53978748 345.01231565 79.59205992 348.61327697 79.75 352.3125 C79.76095703 353.54226563 79.77191406 354.77203125 79.78320312 356.0390625 C80.26789521 378.54768993 88.21823655 398.36730455 104.4375 414.1875 C107.28266868 416.60801664 110.16776749 418.95001986 113.1171875 421.2421875 C115.61832992 423.33910488 117.24180046 424.97234237 117.7734375 428.2734375 C117.84389369 432.40217052 117.8049057 434.59965089 115.5625 438.1875 C112.40719629 441.15719761 110.06041003 441.67983108 105.6953125 441.5703125 C94.012579 439.58950301 82.6707666 424.39197362 76.0625 415.3125 C65.31084431 399.93401062 59.78434189 382.50618404 58.875 363.8125 C58.83181641 362.98105469 58.78863281 362.14960938 58.74414062 361.29296875 C58.63888195 359.25796772 58.53776928 357.22275297 58.4375 355.1875 C57.57753418 355.61047363 57.57753418 355.61047363 56.70019531 356.04199219 C35.06165474 366.63992963 35.06165474 366.63992963 25.4375 369.1875 C24.68726563 369.39761719 23.93703125 369.60773438 23.1640625 369.82421875 C-5.63041192 376.75258205 -33.44668649 368.24425369 -58.5625 354.1875 C-58.52769531 355.38503906 -58.49289063 356.58257812 -58.45703125 357.81640625 C-57.89606002 385.25299931 -66.57881465 407.20157194 -85.45703125 427.3046875 C-98.83479479 441.23411139 -98.83479479 441.23411139 -106.75 441.75 C-110.97536628 441.1265853 -112.6583588 440.26764975 -115.5625 437.1875 C-117.11267004 432.53698988 -117.31125341 428.82762652 -115.25 424.3125 C-113.08463629 421.39993332 -110.35676159 419.39944969 -107.5 417.1875 C-92.96283001 405.6004633 -82.25019116 388.01247536 -79.81152344 369.46118164 C-76.99819886 350.78765743 -76.99819886 350.78765743 -82.296875 333.6640625 C-85.16077758 330.66828038 -88.39382833 328.17848433 -91.70703125 325.70019531 C-94.74604447 323.2225998 -97.02794552 320.24507207 -99.375 317.125 C-99.82069336 316.54153809 -100.26638672 315.95807617 -100.72558594 315.35693359 C-102.02014511 313.64472839 -103.29487745 311.91971723 -104.5625 310.1875 C-105.33078125 309.14078125 -106.0990625 308.0940625 -106.890625 307.015625 C-128.52834871 276.6017616 -147.08767952 237.92448903 -151.10083008 200.49353027 C-151.18810867 199.68622215 -151.27538727 198.87891403 -151.36531067 198.04714203 C-151.43038315 197.43346016 -151.49545563 196.81977829 -151.5625 196.1875 C-153.2216745 196.20082367 -153.2216745 196.20082367 -154.91436768 196.2144165 C-165.33209469 196.29545919 -175.74975785 196.35544469 -186.16772842 196.39474869 C-191.52389908 196.41563454 -196.87981551 196.44397064 -202.23583984 196.48925781 C-207.40351616 196.53267961 -212.57094777 196.55662959 -217.73879242 196.56700897 C-219.71161502 196.57440691 -221.68442405 196.58885319 -223.65714264 196.61042023 C-226.41788303 196.63940543 -229.1776088 196.64345805 -231.93847656 196.64160156 C-232.75631119 196.65598267 -233.57414581 196.67036377 -234.41676331 196.68518066 C-238.04704546 196.65871887 -240.11538202 196.53114447 -243.03900146 194.28411865 C-246.09737082 190.07523096 -246.21343246 186.28060668 -245.5625 181.1875 C-243.44858123 177.68859996 -242.44513941 176.48171314 -238.5625 175.1875 C-235.86978714 175.09627869 -233.20349575 175.06147866 -230.51098633 175.07397461 C-229.69124832 175.07382858 -228.87151031 175.07368256 -228.02693176 175.0735321 C-225.31610472 175.07422904 -222.6053463 175.08201122 -219.89453125 175.08984375 C-218.01551857 175.09170871 -216.1365054 175.09313224 -214.25749207 175.09413147 C-209.31074685 175.09795052 -204.36403098 175.10777562 -199.41729736 175.11883545 C-194.36999915 175.1290627 -189.32269621 175.13363191 -184.27539062 175.13867188 C-174.37108086 175.14939841 -164.46679287 175.16646752 -154.5625 175.1875 C-154.8925 174.1975 -155.2225 173.2075 -155.5625 172.1875 C-155.83562392 166.75605844 -155.80839479 161.31280693 -155.8125 155.875 C-155.81317474 155.08295166 -155.81384949 154.29090332 -155.81454468 153.47485352 C-155.76446754 116.50950031 -147.07105331 78.86030601 -122.5625 50.1875 C-121.90894531 49.41647949 -121.90894531 49.41647949 -121.2421875 48.62988281 C-95.44695619 18.51659012 -57.54331617 3.59628306 -18.61181641 0.36401367 C-12.41212833 0.00513661 -6.20838551 -0.01143767 0 0 Z M-69.5625 35.1875 C-70.54992187 35.66960937 -71.53734375 36.15171875 -72.5546875 36.6484375 C-79.81443193 40.37085603 -86.18416139 45.12692432 -92.5625 50.1875 C-93.24441406 50.72503906 -93.92632812 51.26257813 -94.62890625 51.81640625 C-119.93081312 72.59000764 -130.01775381 105.60401284 -134.02734375 136.8046875 C-134.61646661 143.14784595 -134.65041055 149.50859598 -134.6875 155.875 C-134.69233398 156.64739014 -134.69716797 157.41978027 -134.70214844 158.21557617 C-134.68496577 163.98711117 -134.14321387 169.38036125 -133.5625 175.1875 C-45.1225 175.1875 43.3175 175.1875 134.4375 175.1875 C138.1552808 138.00969202 133.07013938 96.80929875 109.25 66.625 C107.98701062 65.13913015 106.71698848 63.65918632 105.4375 62.1875 C104.72207031 61.27484375 104.72207031 61.27484375 103.9921875 60.34375 C83.63891325 34.75677666 49.03987108 24.39997935 17.98046875 20.78515625 C-11.64210483 18.11875937 -42.83541535 21.60691638 -69.5625 35.1875 Z M-129.5625 197.1875 C-128.78382738 204.97422617 -127.71976256 211.36865171 -125.625 218.75 C-125.31925049 219.82918701 -125.01350098 220.90837402 -124.69848633 222.02026367 C-117.16697885 247.72420948 -105.86957464 272.20411936 -90.5625 294.1875 C-90.1720752 294.74904785 -89.78165039 295.3105957 -89.37939453 295.88916016 C-83.72676385 303.92055515 -77.32442443 311.09807495 -70.5625 318.1875 C-69.76070312 319.05375 -68.95890625 319.92 -68.1328125 320.8125 C-52.09218799 337.64200768 -28.83264942 351.40995136 -5.1640625 352.42578125 C22.97539445 353.0511654 47.06725399 341.68466421 67.46484375 322.4453125 C75.6086382 314.56959499 82.90585144 306.44628018 89.4375 297.1875 C90.20835937 296.13433594 90.97921875 295.08117187 91.7734375 293.99609375 C111.43801723 266.43521926 127.05361318 231.02636817 130.4375 197.1875 C44.6375 197.1875 -41.1625 197.1875 -129.5625 197.1875 Z " fill="#000000" transform="translate(255.5625,59.8125)"/>
<path d="M0 0 C4.06244724 5.21539634 3.01071344 12.2523366 2.94555664 18.53027344 C2.94638653 19.97747984 2.94885043 21.42468614 2.9528656 22.87188721 C2.95571856 25.90153466 2.94108069 28.93044086 2.91357422 31.95996094 C2.87961329 35.81771928 2.88547291 39.67414252 2.90423679 43.53196335 C2.91488031 46.52116744 2.90580102 49.51006864 2.89085197 52.49924469 C2.88571507 53.92000678 2.8860966 55.34080113 2.89239693 56.76155853 C2.92250021 67.6345468 1.76569593 77.11700598 -5.92163086 85.32714844 C-15.52766631 93.6765185 -26.39725909 94.1679026 -38.56225586 94.15917969 C-39.90168895 94.16307477 -41.24112083 94.16741108 -42.58055115 94.17216492 C-45.37519351 94.179589 -48.16970943 94.17936277 -50.96435547 94.17407227 C-54.53066813 94.16826792 -58.09646307 94.18524982 -61.66269016 94.20841694 C-64.42436199 94.22320232 -67.18591027 94.22401975 -69.94761467 94.22090721 C-71.89678615 94.22166398 -73.84593858 94.23548758 -75.7950592 94.24958801 C-82.16349996 94.21639096 -87.11297497 94.08707423 -92.68334961 90.85839844 C-95.16749495 87.94222783 -95.04511059 84.57422025 -94.93334961 80.82324219 C-94.55641745 77.86079098 -93.61120818 76.11864642 -91.68334961 73.85839844 C-87.86608676 71.94321246 -84.72904646 71.60797896 -80.48779297 71.60302734 C-78.64579567 71.59258896 -78.64579567 71.59258896 -76.7665863 71.5819397 C-75.44876663 71.58293671 -74.13094696 71.58393372 -72.77319336 71.58496094 C-71.39985719 71.5763968 -70.02652929 71.5663954 -68.6532135 71.55502319 C-62.835418 71.5088723 -57.0176795 71.48413376 -51.19970703 71.47753906 C-47.63404378 71.47252392 -44.06892813 71.44828211 -40.50345039 71.41221237 C-38.48940823 71.3976683 -36.47524634 71.40505086 -34.46116638 71.41275024 C-33.23632034 71.399487 -32.0114743 71.38622375 -30.74951172 71.37255859 C-29.13332191 71.36828354 -29.13332191 71.36828354 -27.48448181 71.36392212 C-24.01461705 70.73771147 -22.86308025 69.56837655 -20.68334961 66.85839844 C-19.33149463 64.15468848 -19.55866918 62.04631165 -19.55737305 59.01928711 C-19.55356628 57.79429001 -19.54975952 56.56929291 -19.5458374 55.30717468 C-19.54554661 54.32234384 -19.54554661 54.32234384 -19.54524994 53.31761742 C-19.54183462 50.55698005 -19.52047103 47.79657825 -19.50001907 45.03602314 C-19.46200282 39.89564773 -19.43073274 34.75552225 -19.43286133 29.61499023 C-19.43364931 26.0396959 -19.41024885 22.46526169 -19.37097931 18.89019203 C-19.36052902 17.52952252 -19.35898828 16.1687536 -19.36663055 14.80806541 C-19.42729062 2.80851734 -19.42729062 2.80851734 -16.25854492 -0.46069336 C-10.79208606 -4.02881711 -5.3318123 -4.25535961 0 0 Z " fill="#000000" transform="translate(494.683349609375,340.1416015625)"/>
<path d="M0 0 C3.60454887 3.64044047 4.49908929 6.00777224 4.49829102 11.08789062 C4.51334435 12.89501526 4.51334435 12.89501526 4.52870178 14.73864746 C4.52051926 16.0314563 4.51233673 17.32426514 4.50390625 18.65625 C4.51127821 20.00477417 4.5208288 21.35328803 4.53245544 22.70178223 C4.55910907 26.24432472 4.56475297 29.78653068 4.56335449 33.3291626 C4.56112283 38.99870265 4.57533082 44.66782639 4.61894035 50.33720398 C4.62874805 52.31189794 4.61965121 54.28665663 4.61024475 56.26135254 C4.61712814 57.46610229 4.62401154 58.67085205 4.63110352 59.91210938 C4.62966087 61.49832092 4.62966087 61.49832092 4.62818909 63.11657715 C5.05602122 66.43444898 6.03119033 68.31828563 8 71 C10.69525523 72.34762762 12.80541966 72.13954537 15.82324219 72.15771484 C17.0450116 72.16797699 18.26678101 72.17823914 19.52557373 72.18881226 C20.1805056 72.19225018 20.83543747 72.1956881 21.51021576 72.19923019 C23.56202327 72.21102458 25.61362079 72.23048045 27.66534424 72.25234985 C33.49948076 72.31393407 39.33359774 72.36792545 45.16796875 72.40136719 C48.73662143 72.42237286 52.30489426 72.45772682 55.87332916 72.50212479 C57.88835056 72.52308872 59.90351582 72.5283248 61.91864014 72.53329468 C63.77020721 72.55814438 63.77020721 72.55814438 65.65917969 72.58349609 C67.28228058 72.59562637 67.28228058 72.59562637 68.93817139 72.60800171 C73.05266726 73.13477037 76.69842792 74.40261609 79.375 77.6875 C80.51703915 81.91304485 80.47037904 86.0662195 79.4375 90.3125 C76.44379207 93.82685278 72.52885022 94.85188242 68.08752441 95.28216553 C64.50818671 95.39690567 60.94053138 95.41564719 57.359375 95.3984375 C56.0414093 95.40130768 54.7234436 95.40417786 53.36553955 95.40713501 C50.58163847 95.41154255 47.79802734 95.40518268 45.01416016 95.39111328 C41.47620185 95.37408876 37.93892989 95.383829 34.40099716 95.40183067 C31.65200815 95.41276877 28.90317669 95.40917568 26.15418243 95.4014473 C24.22515918 95.3985184 22.29612938 95.40750976 20.36712646 95.4168396 C9.74582572 95.33298864 0.31227189 94.10561991 -7.98828125 87.1015625 C-14.39135177 80.4125296 -17.09062679 73.68962867 -17.19287109 64.58251953 C-17.20893402 63.28081818 -17.22499695 61.97911682 -17.24154663 60.63796997 C-17.25303297 59.21959082 -17.2636417 57.80120433 -17.2734375 56.3828125 C-17.27876118 55.66582058 -17.28408485 54.94882866 -17.28956985 54.21010971 C-17.31624595 50.41661399 -17.33564039 46.62315058 -17.35009766 42.82958984 C-17.36344527 39.69648092 -17.39131933 36.564022 -17.43212891 33.43115234 C-17.48150562 29.63984809 -17.50622379 25.84913386 -17.51332474 22.05752182 C-17.52002511 20.61663233 -17.53521586 19.17575539 -17.55921555 17.7350502 C-17.75831363 5.06270762 -17.75831363 5.06270762 -14.61572266 1.13232422 C-9.59299217 -2.96218092 -5.90995958 -2.36398383 0 0 Z " fill="#000000" transform="translate(32,339)"/>
<path d="M0 0 C0.98413124 -0.01007584 0.98413124 -0.01007584 1.98814392 -0.02035522 C4.13922866 -0.03922742 6.28999995 -0.0432531 8.44116211 -0.04541016 C9.94518662 -0.0518429 11.44920989 -0.05857161 12.95323181 -0.06558228 C16.09775699 -0.07752606 19.24217251 -0.08126583 22.38671875 -0.08007812 C26.41074389 -0.07987447 30.43406645 -0.1072362 34.45792484 -0.14162254 C37.56094074 -0.16387933 40.66378677 -0.16791614 43.76687431 -0.16685867 C45.25041576 -0.16921418 46.73396193 -0.17803501 48.21742439 -0.19352341 C50.29258515 -0.21317134 52.36621972 -0.20735349 54.44140625 -0.1953125 C55.62021866 -0.19816254 56.79903107 -0.20101257 58.01356506 -0.20394897 C61.79604483 0.39124018 63.44491577 1.64042245 66.15600586 4.29052734 C67.88470365 7.74792292 67.64567481 11.51028302 67.15600586 15.29052734 C65.36206918 18.16082603 64.1733731 19.78184373 61.15600586 21.29052734 C59.17595659 21.40054554 57.19225815 21.44700547 55.20922852 21.46411133 C53.96098297 21.47760117 52.71273743 21.491091 51.42666626 21.50498962 C50.7576894 21.51004957 50.08871254 21.51510952 49.39946365 21.5203228 C47.30620764 21.53672973 45.21313145 21.55996782 43.1199646 21.58522034 C37.16820231 21.65600062 31.21636617 21.71608371 25.2644043 21.76733398 C21.62451322 21.79915535 17.98482822 21.84043988 14.34510422 21.88752937 C12.95848681 21.90353197 11.57182193 21.91586161 10.1851387 21.92443657 C8.24387408 21.93661276 6.30270429 21.9617991 4.36157227 21.98754883 C3.25729889 21.99785629 2.15302551 22.00816376 1.01528931 22.01878357 C-1.89478038 22.29535402 -3.50553279 22.5492008 -5.84399414 24.29052734 C-7.89613612 28.01348246 -8.09444734 31.26962479 -8.09936523 35.47021484 C-8.10980362 37.30737061 -8.10980362 37.30737061 -8.12045288 39.18164062 C-8.11945587 40.49632324 -8.11845886 41.81100586 -8.11743164 43.16552734 C-8.12599669 44.5364679 -8.13599837 45.90740016 -8.14736938 47.27832031 C-8.1935051 53.08508346 -8.21825106 58.89179014 -8.22485352 64.69873047 C-8.22987485 68.25791423 -8.25414982 71.81655101 -8.29018021 75.37554932 C-8.3046997 77.38345174 -8.29734838 79.39147393 -8.28964233 81.39941406 C-8.30290558 82.62418457 -8.31616882 83.84895508 -8.32983398 85.11083984 C-8.33410904 86.72369873 -8.33410904 86.72369873 -8.33847046 88.36914062 C-8.96922669 92.01423768 -10.26199568 93.6834865 -12.84399414 96.29052734 C-16.46330112 97.496963 -19.03630419 97.61321293 -22.84399414 97.29052734 C-28.52820467 94.23789576 -28.52820467 94.23789576 -29.84399414 90.29052734 C-29.95339979 88.17648587 -30.00297687 86.05917668 -30.02099609 83.94238281 C-30.04024895 81.97421097 -30.04024895 81.97421097 -30.05989075 79.96627808 C-30.06806106 78.53009419 -30.07550423 77.09390601 -30.08227539 75.65771484 C-30.08635092 74.93251774 -30.09042645 74.20732063 -30.09462547 73.46014786 C-30.11547818 69.61780331 -30.12978039 65.77549434 -30.13916016 61.93310547 C-30.15019172 57.98228718 -30.18455539 54.03203722 -30.22433186 50.08141899 C-30.25060383 47.02886987 -30.25886154 43.97645363 -30.26244164 40.92380142 C-30.26728445 39.46867177 -30.27883207 38.01354712 -30.29747963 36.5585289 C-30.43853341 24.81781576 -28.77406504 16.74018227 -20.63696289 8.01318359 C-14.54092872 2.15620958 -8.33998432 0.05389983 0 0 Z " fill="#000000" transform="translate(44.843994140625,9.70947265625)"/>
<path d="M0 0 C0.64907822 -0.0065712 1.29815643 -0.0131424 1.96690369 -0.01991272 C4.12043373 -0.03965968 6.27389373 -0.05131584 8.42749023 -0.0612793 C9.16463697 -0.06535482 9.90178371 -0.06943035 10.66126823 -0.07362938 C14.56844681 -0.09450337 18.4755902 -0.10879516 22.3828125 -0.11816406 C26.40203688 -0.12918727 30.4207013 -0.16353502 34.43972874 -0.20333576 C37.54289206 -0.22960736 40.64592465 -0.23786553 43.74918938 -0.24144554 C45.22943815 -0.24629014 46.70968192 -0.25784295 48.18982124 -0.27648354 C60.01894965 -0.41610852 68.15408389 1.18180704 76.95092773 9.3840332 C82.77581853 15.44667465 84.91532448 21.62836018 84.94824219 29.92919922 C84.95335312 30.57553314 84.95846405 31.22186707 84.96372986 31.88778687 C84.97753554 34.00642366 84.97667656 36.12473202 84.97436523 38.2434082 C84.97825603 39.7250124 84.98259149 41.2066155 84.98735046 42.68821716 C84.9947924 45.78567125 84.99453536 48.88301128 84.98925781 51.98046875 C84.98345387 55.94385094 85.00042588 59.90676722 85.02360249 63.87007236 C85.03835053 66.92675999 85.0392103 69.98333551 85.03609276 73.04005241 C85.03660504 74.50124983 85.04182533 75.96245367 85.05190468 77.42361641 C85.06427857 79.46745084 85.05747386 81.51037869 85.04589844 83.55419922 C85.04652786 84.71524673 85.04715729 85.87629425 85.04780579 87.07252502 C84.63211571 90.52101528 83.71022211 92.39304595 81.67358398 95.17700195 C78.24438826 97.74889875 74.83418912 97.67914395 70.67358398 97.17700195 C67.70119158 95.39223955 65.24754371 93.3249214 63.67358398 90.17700195 C63.56377998 88.26350479 63.51713141 86.346256 63.5 84.4296875 C63.48651016 83.22471115 63.47302032 82.0197348 63.4591217 80.77824402 C63.44346413 78.81580498 63.44346413 78.81580498 63.42749023 76.8137207 C63.41198848 75.46091406 63.39577894 74.10811536 63.37889099 72.75532532 C63.30814203 67.0057603 63.24809441 61.25611826 63.19677734 55.50634766 C63.16491124 51.98964192 63.12361327 48.47314755 63.07658195 44.95661354 C63.05284794 42.96868181 63.03983825 40.98063139 63.0269928 38.99259949 C63.0103508 37.77816666 62.9937088 36.56373383 62.9765625 35.3125 C62.9611013 33.71271553 62.9611013 33.71271553 62.94532776 32.08061218 C62.65774186 29.00772722 62.15948392 26.88254101 60.67358398 24.17700195 C57.48342387 21.80006817 54.40045979 21.92609608 50.515625 21.92163086 C49.27075821 21.91467194 48.02589142 21.90771301 46.74330139 21.90054321 C45.74975993 21.90156477 45.74975993 21.90156477 44.73614693 21.90260696 C42.65495218 21.90357494 40.57427006 21.8905991 38.4931488 21.87362671 C32.57799218 21.82743347 26.66288948 21.80274919 20.74755859 21.79614258 C17.1246934 21.79112136 13.50236557 21.76684385 9.87968254 21.73081589 C8.50226 21.72103395 7.1247634 21.71867723 5.74731636 21.72398758 C3.81850539 21.7310756 1.88965258 21.71165941 -0.0390625 21.69116211 C-1.13508286 21.68831207 -2.23110321 21.68546204 -3.3603363 21.68252563 C-7.01442477 21.05974121 -8.68463654 19.72541624 -11.32641602 17.17700195 C-13.0551138 13.71960638 -12.81608497 9.95724628 -12.32641602 6.17700195 C-8.80841456 0.54819963 -6.38939259 0.05346578 0 0 Z " fill="#000000" transform="translate(412.326416015625,9.822998046875)"/>
</svg>
