<svg id="svg" xmlns="http://www.w3.org/2000/svg" xmlns:xlink="http://www.w3.org/1999/xlink" width="400" height="400" viewBox="0, 0, 400,400"><g id="svgg"><path id="path0" d="M125.000 25.000 C 86.773 63.227,90.915 141.039,132.936 174.093 C 229.550 250.090,350.090 129.550,274.093 32.936 C 241.039 -9.085,163.227 -13.227,125.000 25.000 M71.702 203.125 C 26.527 237.430,9.995 345.709,44.643 380.357 C 60.088 395.802,93.290 400.000,200.000 400.000 C 351.147 400.000,375.000 389.601,375.000 323.706 C 375.000 223.481,321.394 173.626,243.799 201.684 C 209.310 214.156,191.176 214.331,158.488 202.511 C 106.476 183.703,97.192 183.769,71.702 203.125 " stroke="none" fill="#000000" fill-rule="evenodd"></path></g></svg>